<?xml version="1.0" encoding="UTF-8" standalone="no"?>
<!-- Created with Inkscape (http://www.inkscape.org/) -->

<svg
   width="192"
   height="136"
   viewBox="0 0 25.399999 25.4"
   version="1.1"
   id="svg1"
   sodipodi:docname="lilbowtie.svg"
   inkscape:version="1.3.2 (091e20e, 2023-11-25, custom)"
   xml:space="preserve"
   xmlns:inkscape="http://www.inkscape.org/namespaces/inkscape"
   xmlns:sodipodi="http://sodipodi.sourceforge.net/DTD/sodipodi-0.dtd"
   xmlns="http://www.w3.org/2000/svg"
   xmlns:svg="http://www.w3.org/2000/svg"><sodipodi:namedview
     id="namedview1"
     pagecolor="#808080"
     bordercolor="#000000"
     borderopacity="1"
     inkscape:showpageshadow="false"
     inkscape:pageopacity="0.0"
     inkscape:pagecheckerboard="true"
     inkscape:deskcolor="#404040"
     inkscape:document-units="px"
     inkscape:zoom="2.703125"
     inkscape:cx="39.028902"
     inkscape:cy="24.601156"
     inkscape:window-width="1366"
     inkscape:window-height="715"
     inkscape:window-x="-8"
     inkscape:window-y="-8"
     inkscape:window-maximized="1"
     inkscape:current-layer="g27" /><defs
     id="defs1" /><g
     inkscape:label="Layer 1"
     inkscape:groupmode="layer"
     id="layer1"><g
       id="g3"
       transform="matrix(-0.26458333,0,0,-0.26458333,35.099445,27.386781)"><g
         stroke="#333333"
         stroke-linecap="round"
         stroke-linejoin="round"
         transform="translate(2,8)"
         id="g1"><path
           fill="#767164"
           stroke-width="4.092"
           d="m 103.055,6.015 c -2.396,4.124 10.403,23.763 17.297,23.763 6.893,0 19.693,-19.639 17.296,-23.763 -2.396,-4.123 -12.503,-3.968 -17.296,-3.968 -4.793,0 -14.9,-0.155 -17.297,3.968 z"
           id="path1" /><rect
           width="100.765"
           height="13.197"
           x="-133.869"
           y="18.466"
           fill="#87694d"
           stroke-width="5.109"
           rx="1.602"
           ry="6.598"
           transform="scale(-1,1)"
           id="rect1" /></g><g
         fill="#ebb766"
         stroke="#333333"
         stroke-width="5"
         transform="matrix(-1,0,0,1,1,9.636)"
         id="g2"><circle
           cx="-55"
           cy="25.364"
           r="12.5"
           id="circle1" /><circle
           cx="-93"
           cy="25.364"
           r="12.5"
           id="circle2" /></g></g><circle
       cx="-15.053207"
       cy="-10.57792"
       r="8.8794165"
       fill="#ffcc7f"
       stroke="#333333"
       stroke-width="4.879"
       id="circle1-1"
       style="stroke-width:1.2909;stroke-dasharray:none"
       transform="scale(-1)" /><rect
       style="fill:#e44fd7;fill-opacity:1;stroke:#333333;stroke-width:1.2909;stroke-linecap:round;stroke-linejoin:round;stroke-dasharray:none;stroke-opacity:1"
       id="rect3-0"
       width="3.3913877"
       height="3.1491456"
       x="-6.5297928"
       y="-8.5492668"
       rx="0"
       ry="0" /><g
       id="g8"
       transform="translate(-3.3854267,-3.0208575)" /><g
       id="g22"
       transform="translate(-3.4605996,-3.0453276)"><path
         id="rect3-0-9"
         style="fill:#e44fd7;stroke:#333333;stroke-width:1.2909;stroke-linecap:round;stroke-linejoin:round"
         d="m 4.0127635,-4.398656 c 0.7704728,1.703463 4.3172855,0.383015 5.5080543,-1.058333 1.3426372,-1.625175 1.2437682,-4.622114 0,-6.324145 -1.0277658,-1.406444 -4.1657856,-3.128036 -4.9788877,-1.5875 -1.2234998,2.318092 -1.5006534,6.822087 -0.5291666,8.969978 z"
         sodipodi:nodetypes="sssss"
         transform="translate(0.07517284,0.02447021)" /><ellipse
         style="fill:#e86ddc;fill-opacity:1;stroke:none;stroke-width:1.2909;stroke-linecap:round;stroke-linejoin:round;stroke-dasharray:none;stroke-opacity:1"
         id="path4"
         cx="7.1899676"
         cy="-8.6379547"
         rx="2.6225419"
         ry="3.866281"
         transform="translate(0.07517284,0.02447021)" /><ellipse
         style="fill:#e65fda;fill-opacity:1;stroke:none;stroke-width:1.2909;stroke-linecap:round;stroke-linejoin:round;stroke-dasharray:none;stroke-opacity:1"
         id="path6"
         cx="9.0771322"
         cy="-8.4871206"
         rx="0.73537743"
         ry="1.8946784"
         transform="translate(0.07517284,0.02447021)" /><g
         id="g9"
         transform="matrix(-0.99999999,0,0,0.99999999,23.289617,0.02447021)"><path
           id="path8"
           style="fill:#e44fd7;stroke:#333333;stroke-width:1.2909;stroke-linecap:round;stroke-linejoin:round"
           d="m 4.0127635,-4.398656 c 0.7704728,1.703463 4.3172855,0.383015 5.5080543,-1.058333 1.3426372,-1.625175 1.2437682,-4.622114 0,-6.324145 -1.0277658,-1.406444 -4.1657856,-3.128036 -4.9788877,-1.5875 -1.2234998,2.318092 -1.5006534,6.822087 -0.5291666,8.969978 z"
           sodipodi:nodetypes="sssss" /><ellipse
           style="fill:#e86ddc;fill-opacity:1;stroke:none;stroke-width:1.2909;stroke-linecap:round;stroke-linejoin:round;stroke-dasharray:none;stroke-opacity:1"
           id="ellipse8"
           cx="7.1899676"
           cy="-8.6379547"
           rx="2.6225419"
           ry="3.866281" /><ellipse
           style="fill:#e65fda;fill-opacity:1;stroke:none;stroke-width:1.2909;stroke-linecap:round;stroke-linejoin:round;stroke-dasharray:none;stroke-opacity:1"
           id="ellipse9"
           cx="9.0771322"
           cy="-8.4871206"
           rx="0.73537743"
           ry="1.8946784" /></g><g
         id="g7"
         transform="translate(-0.13764455,0.1472017)"><path
           id="rect3"
           style="opacity:1;fill:#e44fd7;stroke:#333333;stroke-width:1.2909;stroke-linecap:round;stroke-linejoin:round;stroke-dasharray:none"
           d="m 10.124346,-10.644195 c 0.799358,-0.799357 2.592029,-0.799357 3.391387,0 0.742261,0.7422612 0.742261,3.4652187 0,4.2074794 -0.799358,0.7993576 -2.592029,0.7993576 -3.391387,0 -0.7422611,-0.7422607 -0.7422611,-3.4652182 0,-4.2074794 z"
           sodipodi:nodetypes="sssss" /><ellipse
           style="opacity:1;fill:#e86ddc;fill-opacity:1;stroke:none;stroke-width:1.2909;stroke-linecap:round;stroke-linejoin:round;stroke-dasharray:none;stroke-opacity:1"
           id="path5"
           cx="11.835251"
           cy="-8.9802561"
           rx="1.5399668"
           ry="1.6264819" /></g></g><g
       id="g27"
       transform="translate(17.71827,-2.6300554)"><g
         id="g28"><path
           id="path22"
           style="fill:#79d4c1;fill-opacity:1;stroke:#333333;stroke-width:1.2909;stroke-linecap:round;stroke-linejoin:round"
           d="m 4.0127635,-4.398656 c 0.7704728,1.703463 4.3172855,0.383015 5.5080543,-1.058333 1.3426372,-1.625175 1.2437682,-4.622114 0,-6.324145 -1.0277658,-1.406444 -4.1657856,-3.128036 -4.9788877,-1.5875 -1.2234998,2.318092 -1.5006534,6.822087 -0.5291666,8.969978 z"
           sodipodi:nodetypes="sssss"
           transform="translate(0.07517284,0.02447021)" /><ellipse
           style="fill:#a1e1d3;fill-opacity:1;stroke:none;stroke-width:1.2909;stroke-linecap:round;stroke-linejoin:round;stroke-dasharray:none;stroke-opacity:1"
           id="ellipse22"
           cx="7.1899676"
           cy="-8.6379547"
           rx="2.6225419"
           ry="3.866281"
           transform="translate(0.07517284,0.02447021)" /><ellipse
           style="fill:#82d7c5;fill-opacity:1;stroke:none;stroke-width:1.2909;stroke-linecap:round;stroke-linejoin:round;stroke-dasharray:none;stroke-opacity:1"
           id="ellipse23"
           cx="9.0771322"
           cy="-8.4871206"
           rx="0.73537743"
           ry="1.8946784"
           transform="translate(0.07517284,0.02447021)" /><g
           id="g25"
           transform="matrix(-0.99999999,0,0,0.99999999,23.289617,0.02447021)"><path
             id="path23"
             style="fill:#79d4c1;fill-opacity:1;stroke:#333333;stroke-width:1.2909;stroke-linecap:round;stroke-linejoin:round"
             d="m 4.0127635,-4.398656 c 0.7704728,1.703463 4.3172855,0.383015 5.5080543,-1.058333 1.3426372,-1.625175 1.2437682,-4.622114 0,-6.324145 -1.0277658,-1.406444 -4.1657856,-3.128036 -4.9788877,-1.5875 -1.2234998,2.318092 -1.5006534,6.822087 -0.5291666,8.969978 z"
             sodipodi:nodetypes="sssss" /><ellipse
             style="fill:#a1e1d3;fill-opacity:1;stroke:none;stroke-width:1.2909;stroke-linecap:round;stroke-linejoin:round;stroke-dasharray:none;stroke-opacity:1"
             id="ellipse24"
             cx="7.1899676"
             cy="-8.6379547"
             rx="2.6225419"
             ry="3.866281" /><ellipse
             style="fill:#82d7c5;fill-opacity:1;stroke:none;stroke-width:1.2909;stroke-linecap:round;stroke-linejoin:round;stroke-dasharray:none;stroke-opacity:1"
             id="ellipse25"
             cx="9.0771322"
             cy="-8.4871206"
             rx="0.73537743"
             ry="1.8946784" /></g><g
           id="g26"
           transform="translate(-0.13764455,0.1472017)"
           style="fill:#79d4c1;fill-opacity:1"><path
             id="path25"
             style="opacity:1;fill:#79d4c1;fill-opacity:1;stroke:#333333;stroke-width:1.2909;stroke-linecap:round;stroke-linejoin:round;stroke-dasharray:none"
             d="m 10.124346,-10.644195 c 0.799358,-0.799357 2.592029,-0.799357 3.391387,0 0.742261,0.7422612 0.742261,3.4652187 0,4.2074794 -0.799358,0.7993576 -2.592029,0.7993576 -3.391387,0 -0.7422611,-0.7422607 -0.7422611,-3.4652182 0,-4.2074794 z"
             sodipodi:nodetypes="sssss" /><ellipse
             style="opacity:1;fill:#a1e1d3;fill-opacity:1;stroke:none;stroke-width:1.2909;stroke-linecap:round;stroke-linejoin:round;stroke-dasharray:none;stroke-opacity:1"
             id="ellipse26"
             cx="11.835251"
             cy="-8.9802561"
             rx="1.5399668"
             ry="1.6264819" /></g></g><g
         id="g33"
         transform="matrix(0.66457074,-0.23970923,0.23970923,0.66457074,-11.471707,15.28916)"><path
           id="path28"
           style="fill:#79d4c1;fill-opacity:1;stroke:#333333;stroke-width:1.2909;stroke-linecap:round;stroke-linejoin:round"
           d="m 4.0127635,-4.398656 c 0.7704728,1.703463 4.3172855,0.383015 5.5080543,-1.058333 1.3426372,-1.625175 1.2437682,-4.622114 0,-6.324145 -1.0277658,-1.406444 -4.1657856,-3.128036 -4.9788877,-1.5875 -1.2234998,2.318092 -1.5006534,6.822087 -0.5291666,8.969978 z"
           sodipodi:nodetypes="sssss"
           transform="translate(0.07517284,0.02447021)" /><ellipse
           style="fill:#a1e1d3;fill-opacity:1;stroke:none;stroke-width:1.2909;stroke-linecap:round;stroke-linejoin:round;stroke-dasharray:none;stroke-opacity:1"
           id="ellipse28"
           cx="7.1899676"
           cy="-8.6379547"
           rx="2.6225419"
           ry="3.866281"
           transform="translate(0.07517284,0.02447021)" /><ellipse
           style="fill:#82d7c5;fill-opacity:1;stroke:none;stroke-width:1.2909;stroke-linecap:round;stroke-linejoin:round;stroke-dasharray:none;stroke-opacity:1"
           id="ellipse29"
           cx="9.0771322"
           cy="-8.4871206"
           rx="0.73537743"
           ry="1.8946784"
           transform="translate(0.07517284,0.02447021)" /><g
           id="g31"
           transform="matrix(-0.99999999,0,0,0.99999999,23.289617,0.02447021)"><path
             id="path29"
             style="fill:#79d4c1;fill-opacity:1;stroke:#333333;stroke-width:1.2909;stroke-linecap:round;stroke-linejoin:round"
             d="m 4.0127635,-4.398656 c 0.7704728,1.703463 4.3172855,0.383015 5.5080543,-1.058333 1.3426372,-1.625175 1.2437682,-4.622114 0,-6.324145 -1.0277658,-1.406444 -4.1657856,-3.128036 -4.9788877,-1.5875 -1.2234998,2.318092 -1.5006534,6.822087 -0.5291666,8.969978 z"
             sodipodi:nodetypes="sssss" /><ellipse
             style="fill:#a1e1d3;fill-opacity:1;stroke:none;stroke-width:1.2909;stroke-linecap:round;stroke-linejoin:round;stroke-dasharray:none;stroke-opacity:1"
             id="ellipse30"
             cx="7.1899676"
             cy="-8.6379547"
             rx="2.6225419"
             ry="3.866281" /><ellipse
             style="fill:#82d7c5;fill-opacity:1;stroke:none;stroke-width:1.2909;stroke-linecap:round;stroke-linejoin:round;stroke-dasharray:none;stroke-opacity:1"
             id="ellipse31"
             cx="9.0771322"
             cy="-8.4871206"
             rx="0.73537743"
             ry="1.8946784" /></g><g
           id="g32"
           transform="translate(-0.13764455,0.1472017)"
           style="fill:#79d4c1;fill-opacity:1"><path
             id="path31"
             style="opacity:1;fill:#79d4c1;fill-opacity:1;stroke:#333333;stroke-width:1.2909;stroke-linecap:round;stroke-linejoin:round;stroke-dasharray:none"
             d="m 10.124346,-10.644195 c 0.799358,-0.799357 2.592029,-0.799357 3.391387,0 0.742261,0.7422612 0.742261,3.4652187 0,4.2074794 -0.799358,0.7993576 -2.592029,0.7993576 -3.391387,0 -0.7422611,-0.7422607 -0.7422611,-3.4652182 0,-4.2074794 z"
             sodipodi:nodetypes="sssss" /><ellipse
             style="opacity:1;fill:#a1e1d3;fill-opacity:1;stroke:none;stroke-width:1.2909;stroke-linecap:round;stroke-linejoin:round;stroke-dasharray:none;stroke-opacity:1"
             id="ellipse32"
             cx="11.835251"
             cy="-8.9802561"
             rx="1.5399668"
             ry="1.6264819" /></g></g></g></g></svg>
